<svg width="24" height="24" viewBox="0 0 24 24" fill="none" xmlns="http://www.w3.org/2000/svg">
<g clip-path="url(#clip0_115_38)">
<path d="M3.95434 11.38C4.23434 9.91 5.61434 8.9 7.11434 8.9H10.0443C10.5643 8.9 10.9943 8.47 10.9943 7.95C10.9943 7.43 10.5643 7 10.0443 7H7.21434C4.60434 7 2.27434 8.91 2.02434 11.51C1.73434 14.49 4.07434 17 6.99434 17H10.0443C10.5643 17 10.9943 16.57 10.9943 16.05C10.9943 15.53 10.5643 15.1 10.0443 15.1H6.99434C5.08434 15.1 3.57434 13.36 3.95434 11.38ZM8.99434 13H14.9943C15.5443 13 15.9943 12.55 15.9943 12C15.9943 11.45 15.5443 11 14.9943 11H8.99434C8.44434 11 7.99434 11.45 7.99434 12C7.99434 12.55 8.44434 13 8.99434 13ZM16.7743 7H13.9443C13.4243 7 12.9943 7.43 12.9943 7.95C12.9943 8.47 13.4243 8.9 13.9443 8.9H16.8743C18.3743 8.9 19.7543 9.91 20.0343 11.38C20.4143 13.36 18.9043 15.1 16.9943 15.1H13.9443C13.4243 15.1 12.9943 15.53 12.9943 16.05C12.9943 16.57 13.4243 17 13.9443 17H16.9943C19.9143 17 22.2543 14.49 21.9743 11.51C21.7243 8.91 19.3843 7 16.7743 7Z" fill="#D0D0D0"/>
</g>
<defs>
<clipPath id="clip0_115_38">
<rect width="24" height="24" fill="white"/>
</clipPath>
</defs>
</svg>
