<svg width="24" height="24" viewBox="0 0 24 24" fill="none" xmlns="http://www.w3.org/2000/svg">
<g clip-path="url(#clip0_115_29)">
<path d="M15.6 9.79C16.57 9.12 17.25 8.02 17.25 7C17.25 4.74 15.5 3 13.25 3H8C7.45 3 7 3.45 7 4V16C7 16.55 7.45 17 8 17H13.78C15.85 17 17.74 15.31 17.75 13.23C17.76 11.7 16.9 10.39 15.6 9.79ZM10 5.5H13C13.83 5.5 14.5 6.17 14.5 7C14.5 7.83 13.83 8.5 13 8.5H10V5.5ZM13.5 14.5H10V11.5H13.5C14.33 11.5 15 12.17 15 13C15 13.83 14.33 14.5 13.5 14.5Z" fill="#D0D0D0"/>
</g>
<defs>
<clipPath id="clip0_115_29">
<rect width="24" height="24" fill="white"/>
</clipPath>
</defs>
</svg>
