<svg width="20" height="12" viewBox="0 0 20 12" fill="none" xmlns="http://www.w3.org/2000/svg">
<path d="M6.55621 9.90606L2.4863 5.83615L6.55621 1.76624C6.9632 1.35925 6.9632 0.712234 6.55621 0.305243C6.14922 -0.101748 5.50221 -0.101748 5.09522 0.305243L0.305243 5.09522C-0.101748 5.50221 -0.101748 6.15965 0.305243 6.56664L5.09522 11.3671C5.50221 11.774 6.14922 11.774 6.55621 11.3671C6.9632 10.9601 6.9632 10.313 6.55621 9.90606ZM13.4437 9.90606L17.5137 5.83615L13.4437 1.76624C13.0368 1.35925 13.0368 0.712234 13.4437 0.305243C13.8507 -0.101748 14.4978 -0.101748 14.9047 0.305243L19.6947 5.09522C20.1017 5.50221 20.1017 6.15965 19.6947 6.56664L14.9047 11.3671C14.4978 11.774 13.8507 11.774 13.4437 11.3671C13.0368 10.9601 13.0368 10.313 13.4437 9.90606Z" fill="#D0D0D0"/>
</svg>
