<svg width="20" height="10" viewBox="0 0 20 10" fill="none" xmlns="http://www.w3.org/2000/svg">
<path d="M1.95434 4.38C2.23434 2.91 3.61434 1.9 5.11434 1.9H8.04434C8.56434 1.9 8.99434 1.47 8.99434 0.95C8.99434 0.43 8.56434 0 8.04434 0H5.21434C2.60434 0 0.274338 1.91 0.024338 4.51C-0.265662 7.49 2.07434 10 4.99434 10H8.04434C8.56434 10 8.99434 9.57 8.99434 9.05C8.99434 8.53 8.56434 8.1 8.04434 8.1H4.99434C3.08434 8.1 1.57434 6.36 1.95434 4.38ZM6.99434 6H12.9943C13.5443 6 13.9943 5.55 13.9943 5C13.9943 4.45 13.5443 4 12.9943 4H6.99434C6.44434 4 5.99434 4.45 5.99434 5C5.99434 5.55 6.44434 6 6.99434 6ZM14.7743 0H11.9443C11.4243 0 10.9943 0.43 10.9943 0.95C10.9943 1.47 11.4243 1.9 11.9443 1.9H14.8743C16.3743 1.9 17.7543 2.91 18.0343 4.38C18.4143 6.36 16.9043 8.1 14.9943 8.1H11.9443C11.4243 8.1 10.9943 8.53 10.9943 9.05C10.9943 9.57 11.4243 10 11.9443 10H14.9943C17.9143 10 20.2543 7.49 19.9743 4.51C19.7243 1.91 17.3843 0 14.7743 0Z" fill="#D0D0D0"/>
</svg>
