<svg width="24" height="24" viewBox="0 0 24 24" fill="none" xmlns="http://www.w3.org/2000/svg">
<g clip-path="url(#clip0_115_53)">
<path d="M8.2825 15.4925L4.3825 11.5925L8.2825 7.6925C8.6725 7.3025 8.6725 6.6825 8.2825 6.2925C7.8925 5.9025 7.2725 5.9025 6.8825 6.2925L2.2925 10.8825C1.9025 11.2725 1.9025 11.9025 2.2925 12.2925L6.8825 16.8925C7.2725 17.2825 7.8925 17.2825 8.2825 16.8925C8.6725 16.5025 8.6725 15.8825 8.2825 15.4925ZM14.8825 15.4925L18.7825 11.5925L14.8825 7.6925C14.4925 7.3025 14.4925 6.6825 14.8825 6.2925C15.2725 5.9025 15.8925 5.9025 16.2825 6.2925L20.8725 10.8825C21.2625 11.2725 21.2625 11.9025 20.8725 12.2925L16.2825 16.8925C15.8925 17.2825 15.2725 17.2825 14.8825 16.8925C14.4925 16.5025 14.4925 15.8825 14.8825 15.4925Z" fill="#D0D0D0"/>
</g>
<defs>
<clipPath id="clip0_115_53">
<rect width="24" height="24" fill="white"/>
</clipPath>
</defs>
</svg>
